# xmcd CD database file
#
# Track frame offsets:
#	150
#	14322
#	28269
#	46656
#	64704
#	82329
#	92228
#	109070
#
# Disc length: 1703 seconds
#
# Revision: 0
# Processed by: cddbd v1.5.1PL2 Copyright (c) Steve Scherf et al.
# Submitted via: CDex 1.51
#
DISCID=6306a508
DTITLE=Charlie Byrd - Bamba Samba Bossa Nova
DYEAR=1959
DGENRE=Jazz
TTITLE0=Bamba Samba (Bossa Nova)
TTITLE1=Original #2
TTITLE2=Love Song Ballad
TTITLE3=Prelude A La Cha Cha
TTITLE4=Summer Sequence Part 1
TTITLE5=Summer Sequence Part 2
TTITLE6=Summer Sequence Part 3
TTITLE7=Summer Sequence Part 4
EXTD=YEAR: 1959
EXTT0=
EXTT1=
EXTT2=
EXTT3=
EXTT4=
EXTT5=
EXTT6=
EXTT7=
PLAYORDER=
